<svg width="45" height="45" viewBox="0 0 45 45" fill="none" xmlns="http://www.w3.org/2000/svg">
<path fill-rule="evenodd" clip-rule="evenodd" d="M20.1067 8.55285C19.4018 8.55285 18.8303 9.12433 18.8303 9.82928V14.3734C18.8303 16.4882 17.1158 18.2026 15.001 18.2026H10.3293C9.62433 18.2026 9.05285 18.7741 9.05285 19.4791V22.7722C9.05285 23.4772 9.62433 24.0487 10.3293 24.0487H14.2351C14.9401 24.0487 15.5116 24.6201 15.5116 25.3251C15.5116 26.03 14.9401 26.6015 14.2351 26.6015H10.3293C8.21443 26.6015 6.5 24.8871 6.5 22.7722V19.4791C6.5 17.3642 8.21443 15.6498 10.3293 15.6498H15.001C15.7059 15.6498 16.2774 15.0783 16.2774 14.3734V9.82928C16.2774 7.71443 17.9918 6 20.1067 6H23.4765C25.5913 6 27.3057 7.71443 27.3057 9.82928V22.7722C27.3057 24.8871 25.5913 26.6015 23.4765 26.6015H22.3787C21.6738 26.6015 21.1023 26.03 21.1023 25.3251C21.1023 24.6201 21.6738 24.0487 22.3787 24.0487H23.4765C24.1814 24.0487 24.7529 23.4772 24.7529 22.7722V9.82928C24.7529 9.12433 24.1814 8.55285 23.4765 8.55285H20.1067ZM20.9747 19.9513C20.2697 19.9513 19.6982 20.5228 19.6982 21.2278V34.1707C19.6982 34.8757 20.2697 35.4471 20.9747 35.4471H24.3444C25.0494 35.4471 25.6209 34.8757 25.6209 34.1707V29.6266C25.6209 27.5118 27.3353 25.7974 29.4501 25.7974H34.1219C34.8268 25.7974 35.3983 25.2259 35.3983 24.5209V21.2278C35.3983 20.5228 34.8268 19.9513 34.1219 19.9513H30.216C29.511 19.9513 28.9396 19.3799 28.9396 18.6749C28.9396 17.97 29.511 17.3985 30.216 17.3985H34.1219C36.2367 17.3985 37.9511 19.1129 37.9511 21.2278V24.5209C37.9511 26.6358 36.2367 28.3502 34.1219 28.3502H29.4501C28.7452 28.3502 28.1737 28.9217 28.1737 29.6266V34.1707C28.1737 36.2856 26.4593 38 24.3444 38H20.9747C18.8598 38 17.1454 36.2856 17.1454 34.1707V21.2278C17.1454 19.1129 18.8598 17.3985 20.9747 17.3985H22.3787C23.0837 17.3985 23.6552 17.97 23.6552 18.6749C23.6552 19.3799 23.0837 19.9513 22.3787 19.9513H20.9747Z" fill="black"/>
</svg>
